{"title":"Robin Hood(1991)MPEG-4[DaScubaDude]","magnet":"magnet:?xt=urn:btih:702e1638a11a931fa9cab3daa0426007769c9c5a&dn=Robin+Hood%281991%29MPEG-4%5BDaScubaDude%5D&tr=udp%3A%2F%2Ftracker.leechers-paradise.org%3A6969&tr=udp%3A%2F%2Fzer0day.ch%3A1337&tr=udp%3A%2F%2Fopen.demonii.com%3A1337&tr=udp%3A%2F%2Ftracker.coppersurfer.tk%3A6969&tr=udp%3A%2F%2Fexodus.desync.com%3A6969","uploader":"dascuba","categoryP":"video","categoryS":"movies","size":"1050675192","seeders":"0","leechers":"0","description":"Robin Hood (1991)\r\nTV-14 | 1h 44min | Action, Adventure, Drama | 13 May 1991 (USA)\r\nGeneral\r\nComplete name                            : Robin HoodROBINHOOD43_Title1.mp4\r\nFormat                                   : MPEG-4\r\nFormat profile                           : Base Media\r\nCodec ID                                 : isom (isom/iso2/avc1/mp41)\r\nFile size                                : 1 002 MiB\r\nDuration                                 : 1 h 43 min\r\nOverall bit rate mode                    : Variable\r\nOverall bit rate                         : 1 350 kb/s\r\nMovie name                               : ROBINHOOD43\r\nGenre                                    : Adventure\r\nWriting application                      : Lavf54.6.100\r\n\r\nVideo\r\nID                                       : 1\r\nFormat                                   : AVC\r\nFormat/Info                              : Advanced Video Codec\r\nFormat profile                           : <a class=\"__cf_email__\" href=\"/cdn-cgi/l/email-protection\" data-cfemail=\"094b687a6c6560676c49453a\">[email&#xA0;protected]</a><script data-cfhash=\"f9e31\" type=\"text/javascript\">/* <![CDATA[ */!function(t,e,r,n,c,a,p){try{t=document.currentScript||function(){for(t=document.getElementsByTagName('script'),e=t.length;e--;)if(t[e].getAttribute('data-cfhash'))return t[e]}();if(t&&(c=t.previousSibling)){p=t.parentNode;if(a=c.getAttribute('data-cfemail')){for(e='',r='0x'+a.substr(0,2)|0,n=2;a.length-n;n+=2)e+='%'+('0'+('0x'+a.substr(n,2)^r).toString(16)).slice(-2);p.replaceChild(document.createTextNode(decodeURIComponent(e)),c)}p.removeChild(t)}}catch(u){}}()/* ]]> */</script>\r\nFormat settings, CABAC                   : No\r\nFormat settings, ReFrames                : 6 frames\r\nCodec ID                                 : avc1\r\nCodec ID/Info                            : Advanced Video Coding\r\nDuration                                 : 1 h 43 min\r\nBit rate                                 : 1 215 kb/s\r\nWidth                                    : 720 pixels\r\nHeight                                   : 540 pixels\r\nDisplay aspect ratio                     : 4:3\r\nFrame rate mode                          : Constant\r\nFrame rate                               : 29.970 (30000/1001) FPS\r\nColor space                              : YUV\r\nChroma subsampling                       : 4:2:0\r\nBit depth                                : 8 bits\r\nScan type                                : Progressive\r\nBits/(Pixel*Frame)                       : 0.104\r\nStream size                              : 902 MiB (90%)\r\n\r\nAudio\r\nID                                       : 2\r\nFormat                                   : AAC\r\nFormat/Info                              : Advanced Audio Codec\r\nFormat profile                           : LC\r\nCodec ID                                 : 40\r\nDuration                                 : 1 h 43 min\r\nBit rate mode                            : Variable\r\nBit rate                                 : 128 kb/s\r\nMaximum bit rate                         : 148 kb/s\r\nChannel(s)                               : 2 channels\r\nChannel positions                        : Front: L R\r\nSampling rate                            : 44.1 kHz\r\nFrame rate                               : 43.066 FPS (1024 spf)\r\nCompression mode                         : Lossy\r\nStream size                              : 95.0 MiB (9%)\r\nDefault                                  : Yes\r\nAlternate group                          : 1","last_updated":"2017-08-06T12:00:16.951Z","parsed":{"xt":"urn:btih:702e1638a11a931fa9cab3daa0426007769c9c5a","dn":"Robin Hood(1991)MPEG-4[DaScubaDude]","tr":["udp://exodus.desync.com:6969","udp://open.demonii.com:1337","udp://tracker.coppersurfer.tk:6969","udp://tracker.leechers-paradise.org:6969","udp://zer0day.ch:1337"],"infoHash":"702e1638a11a931fa9cab3daa0426007769c9c5a","infoHashBuffer":{"type":"Buffer","data":[112,46,22,56,161,26,147,31,169,202,179,218,160,66,96,7,118,156,156,90]},"name":"Robin Hood(1991)MPEG-4[DaScubaDude]","announce":["udp://exodus.desync.com:6969","udp://open.demonii.com:1337","udp://tracker.coppersurfer.tk:6969","udp://tracker.leechers-paradise.org:6969","udp://zer0day.ch:1337"],"urlList":[]}}